<?xml version="1.0" encoding="UTF-8" ?>
<!DOCTYPE svg PUBLIC "-//W3C//DTD SVG 1.1//EN" "http://www.w3.org/Graphics/SVG/1.1/DTD/svg11.dtd">
<svg width="1000pt" height="1000pt" viewBox="0 0 1000 1000" version="1.1" xmlns="http://www.w3.org/2000/svg">
<path fill="#ffffff" d=" M 0.00 0.00 L 1000.00 0.00 L 1000.00 1000.00 L 0.00 1000.00 L 0.00 0.00 Z" />
<path fill="#f47932" d=" M 280.74 170.30 C 353.45 170.31 426.15 170.30 498.86 170.31 C 498.83 242.92 498.89 315.54 498.83 388.15 C 444.56 387.98 390.30 388.02 336.03 388.14 C 317.59 387.82 299.15 388.43 280.71 388.01 C 280.78 315.44 280.71 242.87 280.74 170.30 Z" />
<path fill="#904868" d=" M 498.86 170.31 C 571.81 170.29 644.76 170.30 717.72 170.30 C 717.74 242.90 717.68 315.50 717.75 388.11 L 717.23 388.11 C 644.43 388.19 571.63 388.10 498.83 388.15 C 498.89 315.54 498.83 242.92 498.86 170.31 Z" />
<path fill="#f5a87c" d=" M 62.55 387.87 C 94.02 388.18 125.51 388.17 156.99 387.92 C 187.99 388.39 218.99 387.74 249.99 388.07 C 260.22 387.95 270.46 388.29 280.71 388.01 C 280.74 460.68 280.76 533.36 280.70 606.03 C 263.47 606.55 246.21 606.11 228.98 606.25 C 173.49 606.25 118.00 606.26 62.51 606.25 C 62.52 533.45 62.44 460.66 62.55 387.87 Z" />
<path fill="#90727f" d=" M 280.71 388.01 C 299.15 388.43 317.59 387.82 336.03 388.14 C 390.30 388.02 444.56 387.98 498.83 388.15 C 498.95 460.67 498.84 533.20 498.82 605.72 C 443.55 605.76 388.29 605.73 333.02 605.74 C 315.58 605.92 298.12 605.37 280.70 606.03 C 280.76 533.36 280.74 460.68 280.71 388.01 Z" />
<path fill="#a8a9ad" d=" M 498.83 388.15 C 571.63 388.10 644.43 388.19 717.23 388.11 C 717.23 460.72 717.21 533.34 717.24 605.95 C 701.52 606.65 685.76 606.06 670.03 606.25 C 613.18 606.26 556.33 606.24 499.48 606.27 C 499.47 678.80 499.50 751.33 499.47 823.86 C 426.56 823.87 353.65 823.87 280.74 823.85 C 280.69 751.25 280.79 678.64 280.70 606.03 C 298.12 605.37 315.58 605.92 333.02 605.74 C 388.29 605.73 443.55 605.76 498.82 605.72 C 498.84 533.20 498.95 460.67 498.83 388.15 Z" />
<path fill="#902052" d=" M 717.23 388.11 L 717.75 388.11 C 790.45 388.17 863.15 388.10 935.85 388.14 C 935.84 460.68 935.85 533.22 935.84 605.75 C 898.23 605.70 860.61 605.75 822.99 605.73 C 787.74 605.88 752.48 605.44 717.24 605.95 C 717.21 533.34 717.23 460.72 717.23 388.11 Z" />
<path fill="#ffffff" d=" M 593.42 448.75 C 608.28 445.56 624.26 447.99 637.48 455.50 C 650.47 462.79 660.66 475.18 664.65 489.60 C 668.23 502.02 667.01 515.71 661.42 527.35 C 655.18 540.54 643.63 550.98 630.14 556.38 C 613.03 563.26 592.86 562.26 576.63 553.44 C 562.90 546.04 552.05 533.08 548.13 517.88 C 544.33 503.91 546.67 488.48 554.21 476.15 C 562.61 461.99 577.38 452.09 593.42 448.75 Z" />
<path fill="#ffffff" d=" M 380.17 449.18 C 395.41 446.74 411.51 450.20 424.38 458.72 C 433.68 464.98 441.41 473.78 445.71 484.19 C 452.12 499.18 451.19 517.11 443.26 531.35 C 434.70 547.03 418.54 557.97 401.03 561.00 C 389.45 562.84 377.29 561.94 366.38 557.47 C 349.38 550.83 335.50 535.95 331.26 518.07 C 327.80 504.42 330.12 489.48 337.38 477.43 C 346.39 462.16 362.71 451.77 380.17 449.18 Z" />
<path fill="#353535" d=" M 604.50 479.86 C 610.75 479.04 617.33 480.84 622.22 484.84 C 629.07 490.19 632.57 499.48 630.85 508.03 C 629.76 514.36 625.95 520.17 620.55 523.66 C 614.10 528.08 605.34 528.90 598.21 525.67 C 590.65 522.45 585.09 515.08 584.07 506.93 C 581.96 494.32 591.77 481.27 604.50 479.86 Z" />
<path fill="#353535" d=" M 383.55 481.87 C 391.75 479.10 401.36 481.37 407.45 487.53 C 414.48 494.36 416.64 505.61 412.51 514.53 C 408.70 523.14 399.52 529.17 390.03 528.65 C 378.15 528.47 367.60 517.98 367.26 506.12 C 366.37 495.55 373.47 485.09 383.55 481.87 Z" />
<path fill="#90727f" d=" M 717.24 605.95 C 752.48 605.44 787.74 605.88 822.99 605.73 C 860.61 605.75 898.23 605.70 935.84 605.75 C 935.85 678.45 935.84 751.15 935.84 823.85 C 862.97 823.85 790.09 823.86 717.22 823.85 C 717.23 751.22 717.19 678.59 717.24 605.95 Z" />
</svg>
